<mxfile host="65bd71144e">
    <diagram id="C5RBs43oDa-KdzZeNtuy" name="Page-1">
        <mxGraphModel dx="1974" dy="748" grid="0" gridSize="15" guides="1" tooltips="1" connect="1" arrows="1" fold="1" page="0" pageScale="1" pageWidth="1600" pageHeight="900" background="#FFFF99" math="0" shadow="0">
            <root>
                <mxCell id="WIyWlLk6GJQsqaUBKTNV-0"/>
                <mxCell id="WIyWlLk6GJQsqaUBKTNV-1" parent="WIyWlLk6GJQsqaUBKTNV-0"/>
                <mxCell id="ZLwBcRzRK4aloqydJdJv-4" value="User Resets Game" style="rounded=1;whiteSpace=wrap;html=1;fontSize=20;shadow=1;perimeterSpacing=1;fillColor=#fff2cc;strokeColor=#d6b656;fontFamily=Calibri;fontStyle=0;labelBackgroundColor=none;labelBorderColor=none;fontColor=#080808;" parent="WIyWlLk6GJQsqaUBKTNV-1" vertex="1">
                    <mxGeometry x="-197" y="555" width="159" height="81" as="geometry"/>
                </mxCell>
                <mxCell id="ZLwBcRzRK4aloqydJdJv-5" value="User Holds Score" style="rounded=1;whiteSpace=wrap;html=1;fontSize=20;shadow=1;perimeterSpacing=1;fillColor=#fff2cc;strokeColor=#d6b656;fontFamily=Calibri;fontStyle=0;labelBackgroundColor=none;labelBorderColor=none;fontColor=#080808;" parent="WIyWlLk6GJQsqaUBKTNV-1" vertex="1">
                    <mxGeometry x="-197" y="248" width="159" height="81" as="geometry"/>
                </mxCell>
                <mxCell id="ZLwBcRzRK4aloqydJdJv-6" value="User Rolls Dice" style="rounded=1;whiteSpace=wrap;html=1;fontSize=20;shadow=1;perimeterSpacing=1;fillColor=#fff2cc;strokeColor=#d6b656;fontFamily=Calibri;fontStyle=0;labelBackgroundColor=none;labelBorderColor=none;fontColor=#080808;" parent="WIyWlLk6GJQsqaUBKTNV-1" vertex="1">
                    <mxGeometry x="-197" y="83" width="159" height="81" as="geometry"/>
                </mxCell>
                <mxCell id="ZLwBcRzRK4aloqydJdJv-7" value="Generate Random Dice Roll" style="rounded=0;whiteSpace=wrap;html=1;shadow=1;labelBackgroundColor=none;labelBorderColor=none;strokeColor=#82b366;fontFamily=Calibri;fontSize=20;fillColor=#d5e8d4;fontColor=#080808;" parent="WIyWlLk6GJQsqaUBKTNV-1" vertex="1">
                    <mxGeometry x="48" y="83" width="161" height="81" as="geometry"/>
                </mxCell>
                <mxCell id="ZLwBcRzRK4aloqydJdJv-8" value="Add current score to total score" style="rounded=0;whiteSpace=wrap;html=1;shadow=1;labelBackgroundColor=none;labelBorderColor=none;strokeColor=#82b366;fontFamily=Calibri;fontSize=20;fillColor=#d5e8d4;fontColor=#080808;" parent="WIyWlLk6GJQsqaUBKTNV-1" vertex="1">
                    <mxGeometry x="48" y="248" width="161" height="81" as="geometry"/>
                </mxCell>
                <mxCell id="ZLwBcRzRK4aloqydJdJv-9" value="Reset current and total scores to 0" style="rounded=0;whiteSpace=wrap;html=1;shadow=1;labelBackgroundColor=none;labelBorderColor=none;strokeColor=#82b366;fontFamily=Calibri;fontSize=20;fillColor=#d5e8d4;fontColor=#080808;" parent="WIyWlLk6GJQsqaUBKTNV-1" vertex="1">
                    <mxGeometry x="48" y="555" width="161" height="81" as="geometry"/>
                </mxCell>
                <mxCell id="ZLwBcRzRK4aloqydJdJv-10" value="Set Player 1 as starting player" style="rounded=0;whiteSpace=wrap;html=1;shadow=1;labelBackgroundColor=none;labelBorderColor=none;strokeColor=#82b366;fontFamily=Calibri;fontSize=20;fillColor=#d5e8d4;fontColor=#080808;" parent="WIyWlLk6GJQsqaUBKTNV-1" vertex="1">
                    <mxGeometry x="299" y="555" width="161" height="81" as="geometry"/>
                </mxCell>
                <mxCell id="ZLwBcRzRK4aloqydJdJv-11" value="Display dice roll on screen" style="rounded=0;whiteSpace=wrap;html=1;shadow=1;labelBackgroundColor=none;labelBorderColor=none;strokeColor=#82b366;fontFamily=Calibri;fontSize=20;fillColor=#d5e8d4;fontColor=#080808;" parent="WIyWlLk6GJQsqaUBKTNV-1" vertex="1">
                    <mxGeometry x="299" y="83" width="161" height="81" as="geometry"/>
                </mxCell>
                <mxCell id="ZLwBcRzRK4aloqydJdJv-12" value="Add to the current score" style="rounded=0;whiteSpace=wrap;html=1;shadow=1;labelBackgroundColor=none;labelBorderColor=none;strokeColor=#82b366;fontFamily=Calibri;fontSize=20;fillColor=#d5e8d4;fontColor=#080808;" parent="WIyWlLk6GJQsqaUBKTNV-1" vertex="1">
                    <mxGeometry x="776" y="83" width="161" height="81" as="geometry"/>
                </mxCell>
                <mxCell id="ZLwBcRzRK4aloqydJdJv-13" value="Is it a 1?" style="rhombus;whiteSpace=wrap;html=1;rounded=1;shadow=1;labelBackgroundColor=none;labelBorderColor=none;strokeColor=#6c8ebf;fontFamily=Calibri;fontSize=20;fillColor=#dae8fc;fontColor=#080808;" parent="WIyWlLk6GJQsqaUBKTNV-1" vertex="1">
                    <mxGeometry x="544" y="77.25" width="148" height="92.5" as="geometry"/>
                </mxCell>
                <mxCell id="ZLwBcRzRK4aloqydJdJv-14" value="Display new score" style="rounded=0;whiteSpace=wrap;html=1;shadow=1;labelBackgroundColor=none;labelBorderColor=none;strokeColor=#82b366;fontFamily=Calibri;fontSize=20;fillColor=#d5e8d4;fontColor=#080808;" parent="WIyWlLk6GJQsqaUBKTNV-1" vertex="1">
                    <mxGeometry x="1021" y="83" width="161" height="81" as="geometry"/>
                </mxCell>
                <mxCell id="ZLwBcRzRK4aloqydJdJv-15" value="Is score &amp;gt;= 100" style="rhombus;whiteSpace=wrap;html=1;rounded=1;shadow=1;labelBackgroundColor=none;labelBorderColor=none;strokeColor=#6c8ebf;fontFamily=Calibri;fontSize=20;fillColor=#dae8fc;fontColor=#080808;" parent="WIyWlLk6GJQsqaUBKTNV-1" vertex="1">
                    <mxGeometry x="306" y="242" width="148" height="92.5" as="geometry"/>
                </mxCell>
                <mxCell id="0" value="" style="edgeStyle=none;html=1;labelBackgroundColor=none;fontColor=#080808;" edge="1" parent="WIyWlLk6GJQsqaUBKTNV-1" source="ZLwBcRzRK4aloqydJdJv-16" target="ZLwBcRzRK4aloqydJdJv-15">
                    <mxGeometry relative="1" as="geometry"/>
                </mxCell>
                <mxCell id="1" value="" style="edgeStyle=none;html=1;labelBackgroundColor=none;fontColor=#080808;" edge="1" parent="WIyWlLk6GJQsqaUBKTNV-1" source="ZLwBcRzRK4aloqydJdJv-16" target="ZLwBcRzRK4aloqydJdJv-13">
                    <mxGeometry relative="1" as="geometry"/>
                </mxCell>
                <mxCell id="ZLwBcRzRK4aloqydJdJv-16" value="Switch Player" style="rounded=0;whiteSpace=wrap;html=1;shadow=1;labelBackgroundColor=none;labelBorderColor=none;strokeColor=#82b366;fontFamily=Calibri;fontSize=20;fillColor=#d5e8d4;fontColor=#080808;" parent="WIyWlLk6GJQsqaUBKTNV-1" vertex="1">
                    <mxGeometry x="537.5" y="247.75" width="161" height="81" as="geometry"/>
                </mxCell>
                <mxCell id="ZLwBcRzRK4aloqydJdJv-21" value="" style="endArrow=classic;html=1;rounded=0;labelBackgroundColor=default;strokeColor=#080808;fontFamily=Calibri;fontSize=20;fontColor=default;startSize=14;endSize=14;shape=connector;curved=1;" parent="WIyWlLk6GJQsqaUBKTNV-1" source="ZLwBcRzRK4aloqydJdJv-12" edge="1">
                    <mxGeometry width="50" height="50" relative="1" as="geometry">
                        <mxPoint x="937" y="173.5" as="sourcePoint"/>
                        <mxPoint x="1007.7106781186548" y="123.5" as="targetPoint"/>
                    </mxGeometry>
                </mxCell>
                <mxCell id="ZLwBcRzRK4aloqydJdJv-22" value="" style="endArrow=classic;html=1;rounded=0;labelBackgroundColor=default;strokeColor=#080808;fontFamily=Calibri;fontSize=20;fontColor=default;startSize=14;endSize=14;shape=connector;curved=1;" parent="WIyWlLk6GJQsqaUBKTNV-1" source="ZLwBcRzRK4aloqydJdJv-5" edge="1">
                    <mxGeometry width="50" height="50" relative="1" as="geometry">
                        <mxPoint x="-38" y="338.5" as="sourcePoint"/>
                        <mxPoint x="32.710678118654755" y="288.5" as="targetPoint"/>
                    </mxGeometry>
                </mxCell>
                <mxCell id="ZLwBcRzRK4aloqydJdJv-23" value="" style="endArrow=classic;html=1;rounded=0;labelBackgroundColor=default;strokeColor=#080808;fontFamily=Calibri;fontSize=20;fontColor=default;startSize=14;endSize=14;shape=connector;curved=1;" parent="WIyWlLk6GJQsqaUBKTNV-1" source="ZLwBcRzRK4aloqydJdJv-6" edge="1">
                    <mxGeometry width="50" height="50" relative="1" as="geometry">
                        <mxPoint x="-38" y="173.5" as="sourcePoint"/>
                        <mxPoint x="32.710678118654755" y="123.5" as="targetPoint"/>
                    </mxGeometry>
                </mxCell>
                <mxCell id="ZLwBcRzRK4aloqydJdJv-25" value="" style="endArrow=classic;html=1;rounded=0;labelBackgroundColor=none;strokeColor=#080808;fontFamily=Calibri;fontSize=20;fontColor=#080808;startSize=14;endSize=14;shape=connector;curved=1;" parent="WIyWlLk6GJQsqaUBKTNV-1" source="ZLwBcRzRK4aloqydJdJv-7" edge="1">
                    <mxGeometry width="50" height="50" relative="1" as="geometry">
                        <mxPoint x="209" y="173.5" as="sourcePoint"/>
                        <mxPoint x="279.71067811865476" y="123.5" as="targetPoint"/>
                    </mxGeometry>
                </mxCell>
                <mxCell id="ZLwBcRzRK4aloqydJdJv-27" value="" style="endArrow=classic;html=1;rounded=0;labelBackgroundColor=none;strokeColor=#080808;fontFamily=Calibri;fontSize=20;fontColor=#080808;startSize=14;endSize=14;shape=connector;curved=1;" parent="WIyWlLk6GJQsqaUBKTNV-1" source="ZLwBcRzRK4aloqydJdJv-11" edge="1">
                    <mxGeometry width="50" height="50" relative="1" as="geometry">
                        <mxPoint x="460" y="173.5" as="sourcePoint"/>
                        <mxPoint x="530.7106781186548" y="123.5" as="targetPoint"/>
                    </mxGeometry>
                </mxCell>
                <mxCell id="ZLwBcRzRK4aloqydJdJv-28" value="No" style="endArrow=classic;html=1;rounded=0;labelBackgroundColor=none;strokeColor=#080808;fontFamily=Calibri;fontSize=20;fontColor=#080808;startSize=14;endSize=14;shape=connector;curved=1;verticalAlign=bottom;" parent="WIyWlLk6GJQsqaUBKTNV-1" source="ZLwBcRzRK4aloqydJdJv-13" edge="1">
                    <mxGeometry width="50" height="50" relative="1" as="geometry">
                        <mxPoint x="692" y="173.5" as="sourcePoint"/>
                        <mxPoint x="762.7106781186548" y="123.5" as="targetPoint"/>
                    </mxGeometry>
                </mxCell>
                <mxCell id="ZLwBcRzRK4aloqydJdJv-29" value="" style="endArrow=classic;html=1;rounded=0;labelBackgroundColor=none;strokeColor=#080808;fontFamily=Calibri;fontSize=20;fontColor=#080808;startSize=14;endSize=14;shape=connector;curved=1;" parent="WIyWlLk6GJQsqaUBKTNV-1" source="ZLwBcRzRK4aloqydJdJv-8" edge="1">
                    <mxGeometry width="50" height="50" relative="1" as="geometry">
                        <mxPoint x="209" y="338.5" as="sourcePoint"/>
                        <mxPoint x="279.71067811865476" y="288.5" as="targetPoint"/>
                    </mxGeometry>
                </mxCell>
                <mxCell id="ZLwBcRzRK4aloqydJdJv-30" value="No" style="endArrow=classic;html=1;rounded=0;labelBackgroundColor=none;strokeColor=#080808;fontFamily=Calibri;fontSize=20;fontColor=#080808;startSize=14;endSize=14;shape=connector;curved=1;verticalAlign=bottom;" parent="WIyWlLk6GJQsqaUBKTNV-1" source="ZLwBcRzRK4aloqydJdJv-15" edge="1">
                    <mxGeometry width="50" height="50" relative="1" as="geometry">
                        <mxPoint x="454" y="338.25" as="sourcePoint"/>
                        <mxPoint x="524.7106781186548" y="288.25" as="targetPoint"/>
                    </mxGeometry>
                </mxCell>
                <mxCell id="ZLwBcRzRK4aloqydJdJv-32" value="Yes" style="endArrow=classic;html=1;labelBackgroundColor=none;fontFamily=Calibri;fontSize=20;fontColor=#080808;startSize=14;endSize=14;shape=connector;verticalAlign=middle;labelPosition=left;verticalLabelPosition=middle;align=right;curved=1;strokeColor=#080808;" parent="WIyWlLk6GJQsqaUBKTNV-1" source="ZLwBcRzRK4aloqydJdJv-13" edge="1">
                    <mxGeometry width="50" height="50" relative="1" as="geometry">
                        <mxPoint x="618" y="219.75" as="sourcePoint"/>
                        <mxPoint x="618" y="240.46067811865476" as="targetPoint"/>
                    </mxGeometry>
                </mxCell>
                <mxCell id="ZLwBcRzRK4aloqydJdJv-33" value="Current Player Wins!" style="rounded=1;whiteSpace=wrap;html=1;shadow=1;labelBackgroundColor=none;labelBorderColor=none;strokeColor=#b85450;fontFamily=Calibri;fontSize=20;fillColor=#f8cecc;glass=0;sketch=0;fontColor=#080808;" parent="WIyWlLk6GJQsqaUBKTNV-1" vertex="1">
                    <mxGeometry x="299.5" y="413" width="161" height="81" as="geometry"/>
                </mxCell>
                <mxCell id="ZLwBcRzRK4aloqydJdJv-35" value="" style="endArrow=classic;html=1;rounded=0;labelBackgroundColor=default;strokeColor=#080808;fontFamily=Calibri;fontSize=20;fontColor=default;startSize=14;endSize=14;shape=connector;curved=1;" parent="WIyWlLk6GJQsqaUBKTNV-1" source="ZLwBcRzRK4aloqydJdJv-4" edge="1">
                    <mxGeometry width="50" height="50" relative="1" as="geometry">
                        <mxPoint x="-38" y="645.5" as="sourcePoint"/>
                        <mxPoint x="32.710678118654755" y="595.5" as="targetPoint"/>
                    </mxGeometry>
                </mxCell>
                <mxCell id="ZLwBcRzRK4aloqydJdJv-36" value="" style="endArrow=classic;html=1;rounded=0;labelBackgroundColor=default;strokeColor=#080808;fontFamily=Calibri;fontSize=20;fontColor=default;startSize=14;endSize=14;shape=connector;curved=1;" parent="WIyWlLk6GJQsqaUBKTNV-1" source="ZLwBcRzRK4aloqydJdJv-9" edge="1">
                    <mxGeometry width="50" height="50" relative="1" as="geometry">
                        <mxPoint x="209" y="645.5" as="sourcePoint"/>
                        <mxPoint x="279.71067811865476" y="595.5" as="targetPoint"/>
                    </mxGeometry>
                </mxCell>
                <mxCell id="ZLwBcRzRK4aloqydJdJv-38" value="Yes" style="endArrow=classic;html=1;rounded=0;labelBackgroundColor=none;strokeColor=#080808;fontFamily=Calibri;fontSize=20;fontColor=#080808;startSize=14;endSize=14;shape=connector;curved=1;verticalAlign=middle;labelPosition=left;verticalLabelPosition=middle;align=right;" parent="WIyWlLk6GJQsqaUBKTNV-1" edge="1">
                    <mxGeometry width="50" height="50" relative="1" as="geometry">
                        <mxPoint x="379.09000000000003" y="332.99999999999994" as="sourcePoint"/>
                        <mxPoint x="379.09000000000003" y="403.7106781186548" as="targetPoint"/>
                        <Array as="points">
                            <mxPoint x="379.09000000000003" y="356.71"/>
                        </Array>
                    </mxGeometry>
                </mxCell>
            </root>
        </mxGraphModel>
    </diagram>
</mxfile>